
<svg id="portfolio" width="733" height="189" viewBox="0 0 733 189" fill="none" xmlns="http://www.w3.org/2000/svg">
        <link xmlns="http://www.w3.org/1999/xhtml" rel="stylesheet" href="css/svg.css" type="text/css"/>
        
        <path d="M38.6172 154.23C38.6172 152.082 38.5195 149.283 38.3242 145.832C38.194 142.382 37.9987 138.573 37.7383 134.406C37.4779 130.24 37.1849 125.812 36.8594 121.125C36.5339 116.438 36.1758 111.783 35.7852 107.16C35.3945 102.538 35.0039 98.0781 34.6133 93.7812C34.2878 89.4193 33.9622 85.4805 33.6367 81.9648C33.1159 76.9518 32.3997 73.2734 31.4883 70.9297C30.5768 68.5859 29.0794 67.4141 26.9961 67.4141C25.043 67.4141 23.7409 67.9674 23.0898 69.0742C22.5039 70.181 22.1458 71.5482 22.0156 73.1758C21.9505 74.8034 21.918 76.5938 21.918 78.5469C21.9831 80.4349 21.6901 82.1927 21.0391 83.8203C20.4531 85.4479 19.3138 86.8151 17.6211 87.9219C15.9284 89.0286 13.3242 89.582 9.8086 89.582C7.3346 89.582 5.2188 88.5729 3.46094 86.5547C1.70312 84.4714 0.824219 81.4766 0.824219 77.5703C0.824219 72.1016 2.45182 67.1536 5.707 62.7266C8.8971 58.2344 13.4219 54.4258 19.2812 51.3008C25.1406 48.1107 32.2044 45.6367 40.4727 43.8789C48.7409 42.1211 57.9206 41.2422 68.0117 41.2422C75.2383 41.2422 81.9115 42.056 88.0312 43.6836C94.151 45.2461 99.424 47.4596 103.852 50.3242C108.344 53.1237 111.859 56.4766 114.398 60.3828C116.938 64.224 118.207 68.4232 118.207 72.9805C118.207 78.1237 116.71 83.0391 113.715 87.7266C110.72 92.4141 106.586 96.7109 101.312 100.617C96.104 104.523 89.9518 107.941 82.8555 110.871C75.7591 113.736 68.1419 115.982 60.0039 117.609C57.7253 118 56.5859 119.4 56.5859 121.809C56.5859 123.436 56.6836 125.487 56.8789 127.961C57.1393 130.37 57.3672 132.909 57.5625 135.578C57.8229 138.247 58.0508 140.884 58.2461 143.488C58.5065 146.092 58.6367 148.404 58.6367 150.422C58.6367 154.068 57.7904 156.672 56.0977 158.234C54.4049 159.797 51.8984 160.578 48.5781 160.578C45.4531 160.578 43.0117 160.025 41.2539 158.918C39.4961 157.876 38.6172 156.314 38.6172 154.23ZM97.992 75.8125C97.992 73.599 97.048 71.4831 95.16 69.4648C93.2721 67.4466 90.7331 65.6562 87.543 64.0938C84.3529 62.5312 80.6419 61.2943 76.4102 60.3828C72.2435 59.4714 67.849 59.0156 63.2266 59.0156C60.9479 59.0156 59.0273 59.1133 57.4648 59.3086C55.9674 59.4388 54.763 59.6992 53.8516 60.0898C52.9401 60.4805 52.2891 61.0013 51.8984 61.6523C51.5729 62.2383 51.4102 63.0195 51.4102 63.9961C51.4102 64.6471 51.5078 66.1771 51.7031 68.5859C51.8984 70.9297 52.1589 73.6641 52.4844 76.7891C52.8099 79.9141 53.1354 83.2018 53.4609 86.6523C53.8516 90.0378 54.2422 93.0977 54.6328 95.832C54.8281 97.8503 55.0885 99.1849 55.4141 99.8359C55.8047 100.487 56.3906 100.812 57.1719 100.812C59.3854 100.812 61.9245 100.454 64.7891 99.7383C67.6536 98.957 70.5833 97.9479 73.5781 96.7109C76.638 95.4089 79.6003 93.944 82.4648 92.3164C85.3945 90.6237 87.9987 88.8659 90.2773 87.043C92.6211 85.1549 94.4766 83.2669 95.844 81.3789C97.276 79.4258 97.992 77.5703 97.992 75.8125Z" stroke="black" stroke-width="5"/>
        <path d="M130.727 110.578C130.727 109.471 130.857 108.234 131.117 106.867C131.378 105.5 131.508 104.003 131.508 102.375C131.508 101.268 131.02 100.422 130.043 99.8359C129.132 99.25 128.09 98.599 126.918 97.8828C125.746 97.1667 124.672 96.2552 123.695 95.1484C122.784 94.0417 122.328 92.4466 122.328 90.3633C122.328 88.8659 122.719 87.3685 123.5 85.8711C124.346 84.3737 125.551 83.0065 127.113 81.7695C130.954 78.9049 134.926 76.3333 139.027 74.0547C143.194 71.776 147.328 69.8555 151.43 68.293C155.596 66.7305 159.698 65.526 163.734 64.6797C167.771 63.8333 171.645 63.4102 175.355 63.4102C181.605 63.4102 187.465 64.582 192.934 66.9258C198.467 69.2044 203.253 72.362 207.289 76.3984C211.391 80.3698 214.613 85.0573 216.957 90.4609C219.366 95.7995 220.57 101.529 220.57 107.648C220.57 113.638 219.301 119.335 216.762 124.738C214.288 130.077 210.935 134.764 206.703 138.801C202.471 142.837 197.491 146.027 191.762 148.371C186.098 150.78 180.108 151.984 173.793 151.984C167.608 151.984 161.879 150.943 156.605 148.859C151.332 146.776 146.775 143.911 142.934 140.266C139.092 136.555 136.098 132.193 133.949 127.18C131.801 122.102 130.727 116.568 130.727 110.578ZM175.941 134.406C178.676 134.406 181.508 133.853 184.438 132.746C187.367 131.639 190.036 130.044 192.445 127.961C194.919 125.812 196.938 123.208 198.5 120.148C200.128 117.089 200.941 113.638 200.941 109.797C200.941 105.891 200.225 102.245 198.793 98.8594C197.361 95.474 195.375 92.5443 192.836 90.0703C190.362 87.5312 187.4 85.5456 183.949 84.1133C180.564 82.681 176.885 81.9648 172.914 81.9648C165.688 81.9648 160.154 83.8529 156.312 87.6289C152.471 91.3398 150.551 97.069 150.551 104.816C150.551 109.048 151.169 112.987 152.406 116.633C153.708 120.214 155.499 123.339 157.777 126.008C160.056 128.612 162.725 130.663 165.785 132.16C168.91 133.658 172.296 134.406 175.941 134.406Z" stroke="black" stroke-width="5"/>
        <path d="M284.293 69.9531C281.884 69.9531 279.768 70.6042 277.945 71.9062C276.122 73.1432 274.56 74.901 273.258 77.1797C271.956 79.3932 270.882 82.0299 270.035 85.0898C269.189 88.0846 268.505 91.3724 267.984 94.9531C267.464 98.5339 267.105 102.277 266.91 106.184C266.715 110.09 266.617 114.029 266.617 118C266.617 123.208 266.812 128.352 267.203 133.43C267.659 138.443 267.887 143.098 267.887 147.395C267.887 150.194 266.845 152.375 264.762 153.938C262.678 155.565 259.716 156.379 255.875 156.379C255.159 156.379 254.345 156.314 253.434 156.184C252.522 156.053 251.643 155.793 250.797 155.402C250.016 155.012 249.299 154.458 248.648 153.742C248.062 153.091 247.737 152.18 247.672 151.008C247.086 145.279 246.24 139.419 245.133 133.43C244.026 127.44 242.626 121.483 240.934 115.559C239.306 109.569 237.32 103.645 234.977 97.7852C232.698 91.9258 230.061 86.1966 227.066 80.5977C226.546 79.6211 226.09 78.7096 225.699 77.8633C225.374 77.0169 225.211 76.2031 225.211 75.4219C225.211 74.4453 225.634 73.4036 226.48 72.2969C227.392 71.125 228.499 70.0508 229.801 69.0742C231.168 68.0977 232.633 67.3164 234.195 66.7305C235.823 66.0794 237.385 65.7539 238.883 65.7539C241.357 65.7539 243.538 67.4792 245.426 70.9297C247.314 74.3151 249.072 79.7513 250.699 87.2383C251.025 88.5404 251.285 89.4518 251.48 89.9727C251.676 90.4935 251.936 90.7539 252.262 90.7539C252.978 90.7539 253.434 89.6471 253.629 87.4336C254.41 81.2487 255.745 75.9427 257.633 71.5156C259.521 67.0234 261.865 63.3451 264.664 60.4805C267.529 57.5508 270.784 55.4023 274.43 54.0352C278.141 52.668 282.21 51.9844 286.637 51.9844C289.176 51.9844 291.747 52.2122 294.352 52.668C296.956 53.1237 299.299 53.8073 301.383 54.7188C303.466 55.6302 305.159 56.737 306.461 58.0391C307.763 59.3411 308.414 60.806 308.414 62.4336C308.414 63.6055 308.154 65.0052 307.633 66.6328C307.177 68.1953 306.559 69.7253 305.777 71.2227C304.996 72.6549 304.085 73.8919 303.043 74.9336C302.066 75.9102 301.057 76.3984 300.016 76.3984C298.844 76.3984 297.704 76.0729 296.598 75.4219C295.491 74.7057 294.286 73.957 292.984 73.1758C291.747 72.3945 290.413 71.6784 288.98 71.0273C287.613 70.3112 286.051 69.9531 284.293 69.9531Z" stroke="black" stroke-width="5"/>
        <path d="M349.867 74.1758C348.24 74.306 347.068 74.3711 346.352 74.3711C343.682 74.3711 342.152 72.9062 341.762 69.9766C340.72 63.4661 339.711 56.9883 338.734 50.543C337.823 44.0977 336.977 37.8477 336.195 31.793C335.87 29.8398 335.447 28.2448 334.926 27.0078C334.47 25.7057 333.819 24.6641 332.973 23.8828C332.191 23.1016 331.215 22.5807 330.043 22.3203C328.936 21.9948 327.569 21.832 325.941 21.832C321.449 21.832 318.227 22.5482 316.273 23.9805C314.32 25.3477 313.344 27.7565 313.344 31.207C313.344 31.5326 313.539 32.7044 313.93 34.7227C314.32 36.7409 314.841 39.5078 315.492 43.0234C316.208 46.5391 317.022 50.7708 317.934 55.7188C318.91 60.6016 319.919 66.0378 320.961 72.0273C321.091 72.418 321.156 72.8086 321.156 73.1992C321.156 73.5247 321.156 73.8503 321.156 74.1758C321.156 75.6732 320.766 76.8125 319.984 77.5938C319.268 78.3099 318.259 78.8307 316.957 79.1562C311.228 80.1979 306.085 81.3372 301.527 82.5742C296.97 83.7461 293.324 84.8854 290.59 85.9922C289.418 86.513 288.507 87.1966 287.855 88.043C287.139 88.8242 286.618 89.7031 286.293 90.6797C285.902 91.5911 285.642 92.5352 285.512 93.5117C285.382 94.4232 285.316 95.237 285.316 95.9531C285.316 97.9714 285.674 99.6641 286.391 101.031C287.107 102.333 288.214 102.984 289.711 102.984C290.818 102.984 292.055 102.887 293.422 102.691C294.789 102.431 296.352 102.008 298.109 101.422C301.234 100.38 304.587 99.4036 308.168 98.4922C311.749 97.5807 315.557 96.6693 319.594 95.7578C319.789 95.7578 320.017 95.7253 320.277 95.6602C320.538 95.5951 320.766 95.5625 320.961 95.5625C323.305 95.5625 324.77 96.9622 325.355 99.7617C326.462 107.509 327.439 115.289 328.285 123.102C329.132 130.849 329.75 138.564 330.141 146.246C330.271 148.655 330.922 150.445 332.094 151.617C333.266 152.789 335.089 153.375 337.562 153.375C340.167 153.375 342.315 153.147 344.008 152.691C345.766 152.301 347.165 151.585 348.207 150.543C349.249 149.566 349.997 148.264 350.453 146.637C350.909 145.074 351.137 143.121 351.137 140.777C351.137 139.931 350.974 138.238 350.648 135.699C350.388 133.095 349.997 129.872 349.477 126.031C349.021 122.125 348.435 117.698 347.719 112.75C347.068 107.802 346.352 102.496 345.57 96.832C345.57 96.6367 345.538 96.4089 345.473 96.1484C345.408 95.8229 345.375 95.5625 345.375 95.3672C345.375 92.8281 346.84 91.3633 349.77 90.9727C351.213 90.8252 353 90.5 355.824 90.5549M349.764 74.1841C352.173 73.9888 355.525 73.8714 357.348 73.8714C358.78 73.8714 359.919 74.1644 360.766 74.7503C361.612 75.2711 362.263 75.9873 362.719 76.8987C363.24 77.7451 363.565 78.7217 363.695 79.8284C363.891 80.8701 363.988 81.9443 363.988 83.0511C363.988 84.0276 363.793 85.0368 363.402 86.0784C363.077 87.1201 362.589 88.0641 361.938 88.9105C360 91 357.198 90.5527 355.698 90.5527" stroke="black" stroke-width="5"/>
        <path d="M374.602 86.1914C373.104 86.0612 371.9 85.0846 370.988 83.2617C370.077 81.4388 369.621 79.4206 369.621 77.207C369.621 76.1654 369.719 75.1562 369.914 74.1797C370.044 73.138 370.305 72.2266 370.695 71.4453C371.086 70.6641 371.574 70.0456 372.16 69.5898C372.746 69.069 373.43 68.8086 374.211 68.8086C376.62 68.8086 379.387 68.7435 382.512 68.6133C385.637 68.418 388.99 68.2227 392.57 68.0273C394.393 67.832 395.402 66.7578 395.598 64.8047C396.184 55.3646 396.997 47.2266 398.039 40.3906C399.081 33.5547 400.35 27.793 401.848 23.1055C403.345 18.3529 405.038 14.5117 406.926 11.582C408.879 8.6523 411.027 6.40625 413.371 4.84375C414.087 4.32292 414.934 3.80208 415.91 3.28125C416.887 2.69531 417.798 2.40234 418.645 2.40234C420.272 2.40234 421.965 2.82552 423.723 3.67188C425.546 4.45312 427.206 5.49479 428.703 6.79688C430.266 8.0339 431.535 9.4661 432.512 11.0938C433.488 12.6562 433.977 14.2188 433.977 15.7812C433.977 16.3672 433.846 16.8555 433.586 17.2461C433.326 17.5716 433 17.8971 432.609 18.2227C430.07 20.1107 427.824 22.2266 425.871 24.5703C423.918 26.9141 422.258 29.7786 420.891 33.1641C419.523 36.5495 418.384 40.6185 417.473 45.3711C416.561 50.1237 415.878 55.8529 415.422 62.5586C415.422 63.6003 415.585 64.3815 415.91 64.9023C416.301 65.3581 416.984 65.5859 417.961 65.5859C420.5 65.5859 423.039 65.3906 425.578 65C428.182 64.6094 430.656 64.2188 433 63.8281C435.344 63.3724 437.557 62.9492 439.641 62.5586C441.724 62.168 443.579 61.9727 445.207 61.9727C446.379 61.9727 447.225 62.6888 447.746 64.1211C448.332 65.4883 448.625 67.181 448.625 69.1992C448.625 70.3711 448.527 71.5755 448.332 72.8125C448.137 74.0495 447.811 75.1562 447.355 76.1328C446.965 77.1094 446.444 77.9557 445.793 78.6719C445.142 79.3229 444.328 79.7135 443.352 79.8438L417.375 82.5781C416.008 82.7734 415.161 83.3268 414.836 84.2383C414.576 85.1497 414.445 86.4193 414.445 88.0469C414.445 102.435 414.803 114.805 415.52 125.156C416.236 135.508 417.017 144.199 417.863 151.23C418.775 158.327 419.589 163.893 420.305 167.93C421.021 172.031 421.379 174.993 421.379 176.816C421.379 178.184 420.826 179.421 419.719 180.527C418.677 181.634 417.31 182.578 415.617 183.359C413.99 184.141 412.199 184.727 410.246 185.117C408.293 185.573 406.47 185.801 404.777 185.801C403.15 185.801 401.685 185.508 400.383 184.922C399.146 184.401 398.43 183.49 398.234 182.188C397.583 177.63 397.03 172.617 396.574 167.148C396.118 161.745 395.728 155.723 395.402 149.082C395.142 142.507 394.947 135.312 394.816 127.5C394.686 119.622 394.621 110.996 394.621 101.621C394.621 99.212 394.621 96.8685 394.621 94.5898C394.621 92.3112 394.686 90.0326 394.816 87.7539C394.816 85.8008 393.742 84.8242 391.594 84.8242L374.602 86.1914Z" stroke="black" stroke-width="5"/>
        <path d="M454.5 111.578C454.5 110.471 454.63 109.234 454.891 107.867C455.151 106.5 455.281 105.003 455.281 103.375C455.281 102.268 454.793 101.422 453.816 100.836C452.905 100.25 451.863 99.599 450.691 98.8828C449.52 98.1667 448.445 97.2552 447.469 96.1484C446.557 95.0417 446.102 93.4466 446.102 91.3633C446.102 89.8659 446.492 88.3685 447.273 86.8711C448.12 85.3737 449.324 84.0065 450.887 82.7695C454.728 79.9049 458.699 77.3333 462.801 75.0547C466.967 72.776 471.102 70.8555 475.203 69.293C479.37 67.7305 483.471 66.526 487.508 65.6797C491.544 64.8333 495.418 64.4102 499.129 64.4102C505.379 64.4102 511.238 65.582 516.707 67.9258C522.241 70.2044 527.026 73.362 531.062 77.3984C535.164 81.3698 538.387 86.0573 540.73 91.4609C543.139 96.7995 544.344 102.529 544.344 108.648C544.344 114.638 543.074 120.335 540.535 125.738C538.061 131.077 534.708 135.764 530.477 139.801C526.245 143.837 521.264 147.027 515.535 149.371C509.871 151.78 503.882 152.984 497.566 152.984C491.382 152.984 485.652 151.943 480.379 149.859C475.105 147.776 470.548 144.911 466.707 141.266C462.866 137.555 459.871 133.193 457.723 128.18C455.574 123.102 454.5 117.568 454.5 111.578ZM499.715 135.406C502.449 135.406 505.281 134.853 508.211 133.746C511.141 132.639 513.81 131.044 516.219 128.961C518.693 126.812 520.711 124.208 522.273 121.148C523.901 118.089 524.715 114.638 524.715 110.797C524.715 106.891 523.999 103.245 522.566 99.8594C521.134 96.474 519.148 93.5443 516.609 91.0703C514.135 88.5312 511.173 86.5456 507.723 85.1133C504.337 83.681 500.659 82.9648 496.688 82.9648C489.461 82.9648 483.927 84.8529 480.086 88.6289C476.245 92.3398 474.324 98.069 474.324 105.816C474.324 110.048 474.943 113.987 476.18 117.633C477.482 121.214 479.272 124.339 481.551 127.008C483.829 129.612 486.499 131.663 489.559 133.16C492.684 134.658 496.069 135.406 499.715 135.406Z" stroke="black" stroke-width="5"/>
        <path d="M545.863 31.7695C545.863 28.3841 546.84 25.9753 548.793 24.543C550.746 23.1107 553.969 22.3945 558.461 22.3945C560.023 22.3945 561.391 22.5573 562.562 22.8828C563.734 23.2083 564.711 23.7617 565.492 24.543C566.273 25.2591 566.892 26.2682 567.348 27.5703C567.868 28.8073 568.292 30.4023 568.617 32.3555C569.464 38.1497 570.31 44.237 571.156 50.6172C572.068 56.9323 572.914 63.2474 573.695 69.5625C574.542 75.8125 575.323 81.9323 576.039 87.9219C576.755 93.8464 577.374 99.3802 577.895 104.523C578.48 109.602 578.904 114.126 579.164 118.098C579.49 122.004 579.652 125.096 579.652 127.375C579.652 129.719 579.424 131.704 578.969 133.332C578.578 134.96 577.862 136.262 576.82 137.238C575.844 138.215 574.542 138.931 572.914 139.387C571.352 139.777 569.398 139.973 567.055 139.973C564.776 139.973 562.953 139.387 561.586 138.215C560.284 137.043 559.633 135.253 559.633 132.844C559.633 130.37 559.438 127.082 559.047 122.98C558.656 118.814 558.135 114.191 557.484 109.113C556.833 104.035 556.085 98.6315 555.238 92.9023C554.457 87.1732 553.611 81.5091 552.699 75.9102C551.853 70.3112 551.007 64.9401 550.16 59.7969C549.379 54.5885 548.663 49.9987 548.012 46.0273C547.361 41.9909 546.84 38.7031 546.449 36.1641C546.059 33.5599 545.863 32.0951 545.863 31.7695Z" stroke="black" stroke-width="5"/>
        <path d="M609.926 43.3906C608.038 43.3906 606.247 43.1302 604.555 42.6094C602.927 42.0234 601.495 41.2422 600.258 40.2656C599.086 39.224 598.142 38.0195 597.426 36.6523C596.71 35.2852 596.352 33.7878 596.352 32.1602C596.352 29.4258 597.426 27.2122 599.574 25.5195C601.788 23.8268 604.717 22.9805 608.363 22.9805C610.056 22.9805 611.684 23.306 613.246 23.957C614.809 24.543 616.176 25.3568 617.348 26.3984C618.585 27.4401 619.561 28.6771 620.277 30.1094C620.993 31.4766 621.352 32.9089 621.352 34.4062C621.352 37.2057 620.31 39.4193 618.227 41.0469C616.208 42.6094 613.441 43.3906 609.926 43.3906ZM596.547 73.1758C596.547 70.8971 597.523 69.0417 599.477 67.6094C601.495 66.112 604.132 65.3633 607.387 65.3633C613.246 65.3633 616.371 67.3815 616.762 71.418C617.022 74.2174 617.283 77.375 617.543 80.8906C617.868 84.4062 618.161 88.1497 618.422 92.1211C618.747 96.0273 619.008 100.096 619.203 104.328C619.464 108.495 619.691 112.629 619.887 116.73C620.082 120.767 620.245 124.673 620.375 128.449C620.505 132.225 620.57 135.676 620.57 138.801C620.57 142.056 619.398 144.497 617.055 146.125C614.776 147.753 611.423 148.566 606.996 148.566C604.978 148.566 603.383 148.078 602.211 147.102C601.104 146.19 600.551 144.823 600.551 143C600.551 134.016 600.323 125.617 599.867 117.805C599.477 109.927 599.021 102.928 598.5 96.8086C598.044 90.6888 597.589 85.6107 597.133 81.5742C596.742 77.4727 596.547 74.6732 596.547 73.1758Z" stroke="black" stroke-width="5"/>
        <path d="M639.906 110.578C639.906 109.471 640.036 108.234 640.297 106.867C640.557 105.5 640.688 104.003 640.688 102.375C640.688 101.268 640.199 100.422 639.223 99.8359C638.311 99.25 637.27 98.599 636.098 97.8828C634.926 97.1667 633.852 96.2552 632.875 95.1484C631.964 94.0417 631.508 92.4466 631.508 90.3633C631.508 88.8659 631.898 87.3685 632.68 85.8711C633.526 84.3737 634.73 83.0065 636.293 81.7695C640.134 78.9049 644.105 76.3333 648.207 74.0547C652.374 71.776 656.508 69.8555 660.609 68.293C664.776 66.7305 668.878 65.526 672.914 64.6797C676.951 63.8333 680.824 63.4102 684.535 63.4102C690.785 63.4102 696.645 64.582 702.113 66.9258C707.647 69.2044 712.432 72.362 716.469 76.3984C720.57 80.3698 723.793 85.0573 726.137 90.4609C728.546 95.7995 729.75 101.529 729.75 107.648C729.75 113.638 728.48 119.335 725.941 124.738C723.467 130.077 720.115 134.764 715.883 138.801C711.651 142.837 706.671 146.027 700.941 148.371C695.277 150.78 689.288 151.984 682.973 151.984C676.788 151.984 671.059 150.943 665.785 148.859C660.512 146.776 655.954 143.911 652.113 140.266C648.272 136.555 645.277 132.193 643.129 127.18C640.98 122.102 639.906 116.568 639.906 110.578ZM685.121 134.406C687.855 134.406 690.688 133.853 693.617 132.746C696.547 131.639 699.216 130.044 701.625 127.961C704.099 125.812 706.117 123.208 707.68 120.148C709.307 117.089 710.121 113.638 710.121 109.797C710.121 105.891 709.405 102.245 707.973 98.8594C706.54 95.474 704.555 92.5443 702.016 90.0703C699.542 87.5312 696.579 85.5456 693.129 84.1133C689.743 82.681 686.065 81.9648 682.094 81.9648C674.867 81.9648 669.333 83.8529 665.492 87.6289C661.651 91.3398 659.73 97.069 659.73 104.816C659.73 109.048 660.349 112.987 661.586 116.633C662.888 120.214 664.678 123.339 666.957 126.008C669.236 128.612 671.905 130.663 674.965 132.16C678.09 133.658 681.475 134.406 685.121 134.406Z" stroke="black" stroke-width="5"/>
</svg>
